<svg width="40" height="40" viewBox="0 0 40 40" fill="none" xmlns="http://www.w3.org/2000/svg">
<path fill-rule="evenodd" clip-rule="evenodd" d="M16.2219 19.2089L16.2228 30.4177L18.6008 31.1935C19.9086 31.6202 21.0142 31.983 21.0575 31.9998C21.1203 32.024 21.1363 30.0865 21.1367 22.4484C21.1369 15.6944 21.1574 12.7906 21.2062 12.6088C21.2977 12.2674 21.6336 11.9207 21.8728 11.9207C22.1435 11.9207 22.5968 12.1841 22.7578 12.4349C23.0474 12.8862 23.05 12.9248 23.0865 17.2689L23.1213 21.4102L23.5309 21.586C25.8115 22.5644 27.6928 21.6257 28.3217 19.1955C28.5905 18.1569 28.558 15.9765 28.2554 14.7518C27.9799 13.6363 27.6149 12.9583 26.8708 12.1794C25.8198 11.0792 24.5186 10.4002 21.7664 9.51604C19.9063 8.91839 17.3596 8.21231 16.4573 8.04411L16.221 8L16.2219 19.2089ZM11.3056 23.0067C7.21143 24.5293 6.81984 24.6881 6.13025 25.105C5.08814 25.7352 4.79398 26.3063 5.13553 27.0368C5.39163 27.5846 6.07524 28.0402 7.21464 28.4227C9.62347 29.2313 12.0171 29.4582 14.4722 29.1108L15.2757 28.9971V27.6704V26.3438L14.5668 26.6102C12.7012 27.3112 12.2779 27.4427 11.6494 27.5162C10.5231 27.6479 9.47815 27.3968 9.47815 26.9944C9.47815 26.9349 9.56083 26.8042 9.66191 26.7039C9.84566 26.5217 10.0667 26.4333 13.9051 25.0059L15.2757 24.4962V23.0366C15.2757 21.9093 15.2577 21.5783 15.1969 21.5829C15.1536 21.5861 13.4025 22.2268 11.3056 23.0067ZM26.5557 22.8594C25.1362 23.0002 23.676 23.2803 22.6959 23.5997L22.0815 23.7999V25.3273V26.8548L22.4124 26.7353C22.5943 26.6695 23.7924 26.2318 25.0748 25.7627C28.008 24.6896 28.0231 24.6854 29.0449 24.6813C29.9489 24.6778 30.327 24.758 30.5645 25.0039C30.6895 25.1332 30.7036 25.1847 30.6484 25.3093C30.612 25.3917 30.4988 25.52 30.3969 25.5945C30.2951 25.669 28.3829 26.403 26.1476 27.2256L22.0835 28.7213L22.0825 30.1958L22.0815 31.6703L27.5559 29.6325C30.5765 28.5082 33.255 27.4738 33.5315 27.3249C34.1462 26.9938 34.7281 26.5141 34.8836 26.2104C34.9569 26.0672 35 25.8474 35 25.6167C35 24.8428 34.3563 24.3017 32.7565 23.7305C31.4428 23.2615 30.2959 23.0103 28.8874 22.8832C28.2077 22.8218 27.0533 22.81 26.5557 22.8594Z" fill="white"/>
</svg>
